<svg xmlns="http://www.w3.org/2000/svg" version="1.1" xmlns:xlink="http://www.w3.org/1999/xlink" xmlns:svgjs="http://svgjs.dev/svgjs" width="1500" height="943" viewBox="0 0 1500 943"><g transform="matrix(1,0,0,1,-0.9090909090909918,-0.00553933052691491)"><svg viewBox="0 0 396 249" data-background-color="#ffffff" preserveAspectRatio="xMidYMid meet" height="943" width="1500" xmlns="http://www.w3.org/2000/svg" xmlns:xlink="http://www.w3.org/1999/xlink"><g id="tight-bounds" transform="matrix(1,0,0,1,0.2400000000000091,0.0014626652186677802)"><svg viewBox="0 0 395.52 247.2" height="247.2" width="395.52"><g><svg></svg></g><g><svg viewBox="0 0 395.52 247.2" height="247.2" width="395.52"><mask id="9b841dfd-0d57-419e-bdc5-bf47dc9c70b5"><rect width="640" height="400" fill="white"></rect><g transform="matrix(1,0,0,1,48.95192898976606,37.08)"><svg viewBox="0 0 297.61614202046786 173.04" height="173.04" width="297.61614202046786"><g><svg viewBox="0 0 297.61614202046786 173.04" height="173.04" width="297.61614202046786"><g><svg viewBox="0 0 316.416 183.97061486078437" height="173.04" width="297.61614202046786"><g><svg viewBox="0 0 316.416 183.97061486078437" height="183.97061486078437" width="316.416"><g id="SvgjsG5155"><svg viewBox="0 0 316.416 183.97061486078437" height="183.97061486078437" width="316.416" id="SvgjsSvg5154"><g><svg viewBox="0 0 316.416 110.88952951642173" height="110.88952951642173" width="316.416"><g transform="matrix(1,0,0,1,0,0)"><svg width="316.416" viewBox="-3.41 -48.58 165.64 58.71" height="110.88952951642173" data-palette-color="#b81d33"><path d="M10.35 0L5.32 0 5.32-38.77 0.59-38.77 0.59-42.97 14.77-42.97 14.77-38.77 10.35-38.77 10.35 0ZM23.65 0.32L23.65 0.32Q20.33 0.32 18.87-2.26 17.4-4.83 17.38-9.4L17.38-9.4 17.38-12.96Q17.38-15.38 18.21-16.98 19.04-18.58 20.55-19.65 22.07-20.73 24.12-21.59 26.17-22.46 28.61-23.44L28.61-23.44 28.61-26.27Q28.61-28.61 28.46-30.07 28.32-31.52 27.72-32.2 27.12-32.89 25.8-32.89L25.8-32.89Q24.51-32.89 23.86-32.2 23.22-31.52 23.02-30.05 22.82-28.59 22.82-26.25L22.82-26.25 22.82-24.98 17.84-24.98 17.84-26.03Q17.84-28.37 18.14-30.38 18.43-32.4 19.26-33.89 20.09-35.38 21.69-36.22 23.29-37.06 25.9-37.06L25.9-37.06Q28.39-37.06 29.92-36.27 31.44-35.47 32.26-33.94 33.08-32.4 33.37-30.14 33.66-27.88 33.66-24.93L33.66-24.93 33.66 0 28.64 0 28.64-3.17Q28.42-2.44 27.78-1.62 27.15-0.81 26.12-0.24 25.1 0.32 23.65 0.32ZM25.07-3.74L25.07-3.74Q26.39-3.74 27.34-4.58 28.29-5.42 28.61-6.25L28.61-6.25 28.61-20.19Q26.73-19.36 25.52-18.69 24.31-18.02 23.64-17.29 22.97-16.55 22.7-15.53 22.43-14.5 22.43-12.94L22.43-12.94 22.43-9.55Q22.43-6.45 22.97-5.09 23.51-3.74 25.07-3.74ZM47.04 0.49L47.04 0.49Q43.13 0.49 41.11-1.97 39.08-4.42 39.08-10.11L39.08-10.11 39.08-12.87 43.94-12.87 43.94-10.13Q43.94-7.06 44.61-5.42 45.28-3.78 46.82-3.78L46.82-3.78Q48.36-3.78 49.08-4.79 49.8-5.79 49.8-8.37L49.8-8.37Q49.8-9.67 49.41-10.95 49.02-12.23 48.21-13.49 47.41-14.75 46.14-15.94L46.14-15.94 43.55-18.41Q41.23-20.63 40.01-23.13 38.79-25.63 38.79-28.44L38.79-28.44Q38.79-32.89 40.89-34.97 42.99-37.06 46.67-37.06L46.67-37.06Q49.14-37.06 50.83-35.99 52.51-34.91 53.36-32.42 54.22-29.93 54.22-25.63L54.22-25.63 54.22-23.88 49.46-23.88 49.46-26.42Q49.46-29.49 48.86-31.13 48.26-32.76 46.72-32.76L46.72-32.76Q45.23-32.76 44.49-31.9 43.75-31.03 43.67-28.74L43.67-28.74Q43.65-27.56 43.98-26.37 44.31-25.17 45.06-24 45.82-22.83 47.02-21.7L47.02-21.7 49.65-19.24Q52.22-16.87 53.52-14.15 54.83-11.43 54.83-8.4L54.83-8.4Q54.83-4.25 52.94-1.88 51.04 0.49 47.04 0.49ZM69.67 0.22L66.23 0.22Q63.88 0.22 62.69-0.34 61.49-0.9 61.08-2.15 60.66-3.39 60.66-5.44L60.66-5.44 60.66-32.62 57.32-32.62 57.32-36.33 60.66-36.33 60.66-42.97 65.67-42.97 65.67-36.33 69.62-36.33 69.62-32.62 65.67-32.62 65.67-5.88Q65.67-4.96 65.91-4.5 66.15-4.05 67.01-3.91 67.86-3.76 69.67-3.76L69.67-3.76 69.67 0.22ZM78.26 6.13L73.35 6.13 73.35 2.34 75.09 2.34Q76.16 2.34 76.96 2.23 77.75 2.12 77.92 1.76L77.92 1.76Q78.21 1.37 78.15 0.52 78.09-0.32 77.94-1.29L77.94-1.29 71.96-36.62 76.82-36.62 79.46-17.58 80.53-7.67 80.97-7.67 81.92-17.58 84.32-36.62 89.15-36.62 83.07 0.71Q82.78 2.69 82.34 3.88 81.9 5.08 80.98 5.6 80.07 6.13 78.26 6.13L78.26 6.13ZM101.92 0L93.52 0 93.52-42.97 101.28-42.97Q104.58-42.97 106.38-41.99 108.19-41.02 108.92-38.89 109.66-36.77 109.68-33.3L109.68-33.3 109.68-32.37Q109.68-28.78 109.01-26.53 108.34-24.27 106.43-23.27L106.43-23.27Q107.97-22.66 108.83-21.14 109.68-19.63 110.03-17.5 110.39-15.38 110.39-12.94L110.39-12.94 110.39-12.04Q110.34-7.84 109.55-5.18 108.75-2.51 106.92-1.26 105.09 0 101.92 0L101.92 0ZM98.57-21.14L98.57-4.08 101.67-4.08Q103.11-4.08 103.89-4.79 104.68-5.49 104.99-7.26 105.31-9.03 105.31-12.18L105.31-12.18 105.31-13.67Q105.31-17.65 104.68-19.4 104.04-21.14 101.94-21.14L101.94-21.14 98.57-21.14ZM98.57-38.84L98.57-25.02 101.43-25.02Q102.45-25.02 103.09-25.26 103.72-25.49 104.08-26.2 104.43-26.9 104.55-28.3 104.68-29.69 104.68-32.03L104.68-32.03 104.68-33.23Q104.68-35.67 104.31-36.87 103.94-38.06 103.15-38.45 102.36-38.84 101.06-38.84L101.06-38.84 98.57-38.84ZM121.05 0L116.03 0 116.03-36.62 121.05-36.62 121.05 0ZM121.05-39.99L116.03-39.99 116.03-44.58 121.05-44.58 121.05-39.99ZM138.09 0.22L134.65 0.22Q132.31 0.22 131.11-0.34 129.91-0.9 129.5-2.15 129.08-3.39 129.08-5.44L129.08-5.44 129.08-32.62 125.74-32.62 125.74-36.33 129.08-36.33 129.08-42.97 134.09-42.97 134.09-36.33 138.04-36.33 138.04-32.62 134.09-32.62 134.09-5.88Q134.09-4.96 134.33-4.5 134.58-4.05 135.43-3.91 136.29-3.76 138.09-3.76L138.09-3.76 138.09 0.22ZM150.32 0.44L150.32 0.44Q147.69 0.44 146.09-0.48 144.49-1.39 143.66-3.08 142.83-4.76 142.55-7.12 142.27-9.47 142.27-12.33L142.27-12.33 142.27-25.27Q142.27-27.86 142.63-30.02 143-32.18 143.9-33.75 144.8-35.33 146.42-36.19 148.03-37.06 150.52-37.06L150.52-37.06Q153.03-37.06 154.57-36.18 156.11-35.3 156.9-33.7 157.69-32.1 157.96-29.9 158.23-27.69 158.23-25.05L158.23-25.05 158.23-18.14 147.29-18.14 147.29-10.84Q147.29-7.37 147.77-5.55 148.25-3.74 150.37-3.74L150.37-3.74Q151.76-3.74 152.36-4.6 152.96-5.47 153.09-7.04 153.23-8.62 153.23-10.77L153.23-10.77 153.23-13.72 158.13-13.72 158.13-12.16Q158.13-9.3 157.9-6.98 157.67-4.66 156.91-3 156.16-1.34 154.58-0.45 153.01 0.44 150.32 0.44ZM147.27-26.03L147.27-21.53 153.23-21.53 153.23-26.2Q153.23-28.39 153.08-29.9 152.93-31.4 152.37-32.17 151.81-32.93 150.52-32.93L150.52-32.93Q149.08-32.93 148.38-32.06 147.69-31.18 147.48-29.63 147.27-28.08 147.27-26.03L147.27-26.03Z" opacity="1" transform="matrix(1,0,0,1,0,0)" fill="black" class="wordmark-text-0" id="SvgjsPath5153" stroke-width="7" stroke="black" stroke-linejoin="round"></path></svg></g></svg></g><g transform="matrix(1,0,0,1,3.5,133.89244297323418)"><svg viewBox="0 0 309.416 50.0781718875502" height="50.0781718875502" width="309.416"><g transform="matrix(1,0,0,1,0,0)"><svg width="309.416" viewBox="-3.75 -36.7 250 41.300000000000004" height="50.0781718875502" data-palette-color="#b81d33"><path d="M21-30.1L14.55-30.1 14.55-1.5Q14.55-0.9 15.25-0.9L15.25-0.9 19.6-0.9 19.6 0 5.4 0 5.4-0.9 9.75-0.9Q10.45-0.9 10.45-1.5L10.45-1.5 10.45-30.1 4-30.1Q2.7-30.1 2.6-29L2.6-29 1.85-23.15 0.7-23.15 0.7-25.5Q0.7-29.9 0.25-31.95L0.25-31.95Q1.85-31.5 5.8-31.5L5.8-31.5 19.2-31.5Q23.15-31.5 24.75-31.95L24.75-31.95Q24.3-29.9 24.3-25.5L24.3-25.5 24.3-23.15 23.15-23.15 22.4-29Q22.3-30.1 21-30.1L21-30.1ZM32.6-22.2L32.6-22.2Q36.05-22.2 38.05-19.9 40.05-17.6 40.05-13.15L40.05-13.15Q40.05-12.25 39.95-11.15L39.95-11.15 26.3-11.15 26.3-10.8Q26.3-6.05 28.03-3.33 29.75-0.6 32.48-0.6 35.2-0.6 36.95-2 38.7-3.4 39.35-6L39.35-6 40.3-5.8Q39.7-2.75 37.55-1.07 35.4 0.6 32.6 0.6L32.6 0.6Q28.25 0.6 25.38-2.45 22.5-5.5 22.5-10.78 22.5-16.05 25.4-19.13 28.3-22.2 32.6-22.2ZM36.6-14.85L36.6-14.85Q36.6-21 32-21L32-21Q29.7-21 28.08-18.5 26.45-16 26.35-12.15L26.35-12.15 36.4-12.15Q36.6-13.85 36.6-14.85ZM51.05-13.55L51.05-13.55 56.25-11.6Q58.1-10.9 59.08-9.47 60.05-8.05 60.05-6.3L60.05-6.3Q60.05-3.6 57.9-1.5 55.75 0.6 52.13 0.6 48.5 0.6 45.3-0.75L45.3-0.75Q45.6-1.95 45.6-4.95L45.6-4.95 45.6-6.95 46.5-6.95 46.85-4.35Q47.3-0.6 52.1-0.6L52.1-0.6Q54.25-0.6 55.68-1.93 57.1-3.25 57.1-4.95L57.1-4.95Q57.1-7.3 54.25-8.35L54.25-8.35 49.05-10.3Q47.3-10.95 46.4-12.35 45.5-13.75 45.5-15.5L45.5-15.5Q45.5-18.15 47.4-20.18 49.3-22.2 52.18-22.2 55.05-22.2 58.65-20.85L58.65-20.85Q58.35-19.65 58.35-16.65L58.35-16.65 58.35-14.65 57.45-14.65 57.1-17.25Q56.7-20.85 52.55-20.85L52.55-20.85Q50.7-20.85 49.5-19.7 48.3-18.55 48.3-17L48.3-17Q48.3-14.6 51.05-13.55ZM69.2-26.9L69.2-26.9 69.95-26.9 69.95-21.6 74.95-21.6 74.95-20.7 69.95-20.7 69.95-3.75Q69.95-1.05 71.45-1.05L71.45-1.05Q72.15-1.05 72.68-1.7 73.2-2.35 73.2-3.2 73.2-4.05 73.05-4.8L73.05-4.8 74-4.95Q74.2-4.2 74.2-3.3L74.2-3.3Q74.2-1.5 73.13-0.45 72.05 0.6 70.3 0.6 68.55 0.6 67.45-0.83 66.35-2.25 66.35-5.1L66.35-5.1 66.35-20Q66.35-20.7 65.65-20.7L65.65-20.7 63.3-20.7 63.3-21.6 65.75-21.6Q67.35-21.6 69.2-26.9ZM95.35-26.9L95.35-26.9 96.1-26.9 96.1-21.6 101.1-21.6 101.1-20.7 96.1-20.7 96.1-3.75Q96.1-1.05 97.6-1.05L97.6-1.05Q98.3-1.05 98.83-1.7 99.35-2.35 99.35-3.2 99.35-4.05 99.2-4.8L99.2-4.8 100.15-4.95Q100.35-4.2 100.35-3.3L100.35-3.3Q100.35-1.5 99.28-0.45 98.2 0.6 96.45 0.6 94.7 0.6 93.6-0.83 92.5-2.25 92.5-5.1L92.5-5.1 92.5-20Q92.5-20.7 91.8-20.7L91.8-20.7 89.45-20.7 89.45-21.6 91.9-21.6Q93.5-21.6 95.35-26.9ZM123.95-14.6L123.95-14.6 123.95-1.5Q123.95-0.9 124.65-0.9L124.65-0.9 127-0.9 127 0 118 0 118-0.9 119.65-0.9Q120.35-0.9 120.35-1.5L120.35-1.5 120.35-15.25Q120.35-17.8 119.23-19.03 118.1-20.25 116.25-20.25L116.25-20.25Q113.65-20.25 111.95-17.18 110.25-14.1 110.25-8.35L110.25-8.35 110.25-1.6Q110.25-0.9 110.95-0.9L110.95-0.9 112.6-0.9 112.6 0 103.6 0 103.6-0.9 105.95-0.9Q106.65-0.9 106.65-1.5L106.65-1.5 106.65-30.8Q106.65-31.5 105.95-31.5L105.95-31.5 103.6-31.5 103.6-32.4 106.05-32.4Q109.05-32.4 110.25-32.7L110.25-32.7 110.25-15.1Q111.95-22.2 117.75-22.2L117.75-22.2Q120.35-22.2 122.15-20.33 123.95-18.45 123.95-14.6ZM140.6-22.2L140.6-22.2Q144.05-22.2 146.05-19.9 148.05-17.6 148.05-13.15L148.05-13.15Q148.05-12.25 147.95-11.15L147.95-11.15 134.3-11.15 134.3-10.8Q134.3-6.05 136.03-3.33 137.75-0.6 140.47-0.6 143.2-0.6 144.95-2 146.7-3.4 147.35-6L147.35-6 148.3-5.8Q147.7-2.75 145.55-1.07 143.4 0.6 140.6 0.6L140.6 0.6Q136.25 0.6 133.38-2.45 130.5-5.5 130.5-10.78 130.5-16.05 133.4-19.13 136.3-22.2 140.6-22.2ZM144.6-14.85L144.6-14.85Q144.6-21 140-21L140-21Q137.7-21 136.07-18.5 134.45-16 134.35-12.15L134.35-12.15 144.4-12.15Q144.6-13.85 144.6-14.85ZM183.08-2.45Q180.35 0.6 175.95 0.6 171.55 0.6 168.6-2.7L168.6-2.7 168.2 0.4 167.35 0.4 167.35-30.8Q167.35-31.5 166.65-31.5L166.65-31.5 164.3-31.5 164.3-32.4 166.75-32.4Q169.75-32.4 170.95-32.7L170.95-32.7 170.95-14.9Q171.8-18.5 173.68-20.35 175.55-22.2 177.85-22.2L177.85-22.2Q181-22.2 183.4-19.05 185.8-15.9 185.8-10.7 185.8-5.5 183.08-2.45ZM177.1-20.3L177.1-20.3Q174.6-20.3 172.78-17.2 170.95-14.1 170.95-8.25L170.95-8.25 170.95-2.05Q173.05-0.65 175.73-0.65 178.4-0.65 180.2-3.3 182-5.95 182-10.6 182-15.25 180.55-17.78 179.1-20.3 177.1-20.3ZM199.9-22.2L199.9-22.2Q203.35-22.2 205.35-19.9 207.35-17.6 207.35-13.15L207.35-13.15Q207.35-12.25 207.25-11.15L207.25-11.15 193.6-11.15 193.6-10.8Q193.6-6.05 195.33-3.33 197.05-0.6 199.78-0.6 202.5-0.6 204.25-2 206-3.4 206.65-6L206.65-6 207.6-5.8Q207-2.75 204.85-1.07 202.7 0.6 199.9 0.6L199.9 0.6Q195.55 0.6 192.68-2.45 189.8-5.5 189.8-10.78 189.8-16.05 192.7-19.13 195.6-22.2 199.9-22.2ZM203.9-14.85L203.9-14.85Q203.9-21 199.3-21L199.3-21Q197-21 195.38-18.5 193.75-16 193.65-12.15L193.65-12.15 203.7-12.15Q203.9-13.85 203.9-14.85ZM218.35-13.55L218.35-13.55 223.55-11.6Q225.4-10.9 226.38-9.47 227.35-8.05 227.35-6.3L227.35-6.3Q227.35-3.6 225.2-1.5 223.05 0.6 219.43 0.6 215.8 0.6 212.6-0.75L212.6-0.75Q212.9-1.95 212.9-4.95L212.9-4.95 212.9-6.95 213.8-6.95 214.15-4.35Q214.6-0.6 219.4-0.6L219.4-0.6Q221.55-0.6 222.98-1.93 224.4-3.25 224.4-4.95L224.4-4.95Q224.4-7.3 221.55-8.35L221.55-8.35 216.35-10.3Q214.6-10.95 213.7-12.35 212.8-13.75 212.8-15.5L212.8-15.5Q212.8-18.15 214.7-20.18 216.6-22.2 219.48-22.2 222.35-22.2 225.95-20.85L225.95-20.85Q225.65-19.65 225.65-16.65L225.65-16.65 225.65-14.65 224.75-14.65 224.4-17.25Q224-20.85 219.85-20.85L219.85-20.85Q218-20.85 216.8-19.7 215.6-18.55 215.6-17L215.6-17Q215.6-14.6 218.35-13.55ZM236.5-26.9L236.5-26.9 237.25-26.9 237.25-21.6 242.25-21.6 242.25-20.7 237.25-20.7 237.25-3.75Q237.25-1.05 238.75-1.05L238.75-1.05Q239.45-1.05 239.98-1.7 240.5-2.35 240.5-3.2 240.5-4.05 240.35-4.8L240.35-4.8 241.3-4.95Q241.5-4.2 241.5-3.3L241.5-3.3Q241.5-1.5 240.43-0.45 239.35 0.6 237.6 0.6 235.85 0.6 234.75-0.83 233.65-2.25 233.65-5.1L233.65-5.1 233.65-20Q233.65-20.7 232.95-20.7L232.95-20.7 230.6-20.7 230.6-21.6 233.05-21.6Q234.65-21.6 236.5-26.9Z" opacity="1" transform="matrix(1,0,0,1,0,0)" fill="black" class="slogan-text-1" id="SvgjsPath5152" stroke-width="7" stroke="black" stroke-linejoin="round"></path></svg></g></svg></g></svg></g></svg></g></svg></g></svg></g></svg></g></mask><g transform="matrix(1,0,0,1,48.95192898976606,37.08)"><svg viewBox="0 0 297.61614202046786 173.04" height="173.04" width="297.61614202046786"><g><svg viewBox="0 0 297.61614202046786 173.04" height="173.04" width="297.61614202046786"><g><svg viewBox="0 0 316.416 183.97061486078437" height="173.04" width="297.61614202046786"><g><svg viewBox="0 0 316.416 183.97061486078437" height="183.97061486078437" width="316.416"><g id="textblocktransform"><svg viewBox="0 0 316.416 183.97061486078437" height="183.97061486078437" width="316.416" id="textblock"><g><svg viewBox="0 0 316.416 110.88952951642173" height="110.88952951642173" width="316.416"><g transform="matrix(1,0,0,1,0,0)"><svg width="316.416" viewBox="-3.41 -48.58 165.64 58.71" height="110.88952951642173" data-palette-color="#b81d33"><path d="M10.35 0L5.32 0 5.32-38.77 0.59-38.77 0.59-42.97 14.77-42.97 14.77-38.77 10.35-38.77 10.35 0ZM23.65 0.32L23.65 0.32Q20.33 0.32 18.87-2.26 17.4-4.83 17.38-9.4L17.38-9.4 17.38-12.96Q17.38-15.38 18.21-16.98 19.04-18.58 20.55-19.65 22.07-20.73 24.12-21.59 26.17-22.46 28.61-23.44L28.61-23.44 28.61-26.27Q28.61-28.61 28.46-30.07 28.32-31.52 27.72-32.2 27.12-32.89 25.8-32.89L25.8-32.89Q24.51-32.89 23.86-32.2 23.22-31.52 23.02-30.05 22.82-28.59 22.82-26.25L22.82-26.25 22.82-24.98 17.84-24.98 17.84-26.03Q17.84-28.37 18.14-30.38 18.43-32.4 19.26-33.89 20.09-35.38 21.69-36.22 23.29-37.06 25.9-37.06L25.9-37.06Q28.39-37.06 29.92-36.27 31.44-35.47 32.26-33.94 33.08-32.4 33.37-30.14 33.66-27.88 33.66-24.93L33.66-24.93 33.66 0 28.64 0 28.64-3.17Q28.42-2.44 27.78-1.62 27.15-0.81 26.12-0.24 25.1 0.32 23.65 0.32ZM25.07-3.74L25.07-3.74Q26.39-3.74 27.34-4.58 28.29-5.42 28.61-6.25L28.61-6.25 28.61-20.19Q26.73-19.36 25.52-18.69 24.31-18.02 23.64-17.29 22.97-16.55 22.7-15.53 22.43-14.5 22.43-12.94L22.43-12.94 22.43-9.55Q22.43-6.45 22.97-5.09 23.51-3.74 25.07-3.74ZM47.04 0.49L47.04 0.49Q43.13 0.49 41.11-1.97 39.08-4.42 39.08-10.11L39.08-10.11 39.08-12.87 43.94-12.87 43.94-10.13Q43.94-7.06 44.61-5.42 45.28-3.78 46.82-3.78L46.82-3.78Q48.36-3.78 49.08-4.79 49.8-5.79 49.8-8.37L49.8-8.37Q49.8-9.67 49.41-10.95 49.02-12.23 48.21-13.49 47.41-14.75 46.14-15.94L46.14-15.94 43.55-18.41Q41.23-20.63 40.01-23.13 38.79-25.63 38.79-28.44L38.79-28.44Q38.79-32.89 40.89-34.97 42.99-37.06 46.67-37.06L46.67-37.06Q49.14-37.06 50.83-35.99 52.51-34.91 53.36-32.42 54.22-29.93 54.22-25.63L54.22-25.63 54.22-23.88 49.46-23.88 49.46-26.42Q49.46-29.49 48.86-31.13 48.26-32.76 46.72-32.76L46.72-32.76Q45.23-32.76 44.49-31.9 43.75-31.03 43.67-28.74L43.67-28.74Q43.65-27.56 43.98-26.37 44.31-25.17 45.06-24 45.82-22.83 47.02-21.7L47.02-21.7 49.65-19.24Q52.22-16.87 53.52-14.15 54.83-11.43 54.83-8.4L54.83-8.4Q54.83-4.25 52.94-1.88 51.04 0.49 47.04 0.49ZM69.67 0.22L66.23 0.22Q63.88 0.22 62.69-0.34 61.49-0.9 61.08-2.15 60.66-3.39 60.66-5.44L60.66-5.44 60.66-32.62 57.32-32.62 57.32-36.33 60.66-36.33 60.66-42.97 65.67-42.97 65.67-36.33 69.62-36.33 69.62-32.62 65.67-32.62 65.67-5.88Q65.67-4.96 65.91-4.5 66.15-4.05 67.01-3.91 67.86-3.76 69.67-3.76L69.67-3.76 69.67 0.22ZM78.26 6.13L73.35 6.13 73.35 2.34 75.09 2.34Q76.16 2.34 76.96 2.23 77.75 2.12 77.92 1.76L77.92 1.76Q78.21 1.37 78.15 0.52 78.09-0.32 77.94-1.29L77.94-1.29 71.96-36.62 76.82-36.62 79.46-17.58 80.53-7.67 80.97-7.67 81.92-17.58 84.32-36.62 89.15-36.62 83.07 0.71Q82.78 2.69 82.34 3.88 81.9 5.08 80.98 5.6 80.07 6.13 78.26 6.13L78.26 6.13ZM101.92 0L93.52 0 93.52-42.97 101.28-42.97Q104.58-42.97 106.38-41.99 108.19-41.02 108.92-38.89 109.66-36.77 109.68-33.3L109.68-33.3 109.68-32.37Q109.68-28.78 109.01-26.53 108.34-24.27 106.43-23.27L106.43-23.27Q107.97-22.66 108.83-21.14 109.68-19.63 110.03-17.5 110.39-15.38 110.39-12.94L110.39-12.94 110.39-12.04Q110.34-7.84 109.55-5.18 108.75-2.51 106.92-1.26 105.09 0 101.92 0L101.92 0ZM98.57-21.14L98.57-4.08 101.67-4.08Q103.11-4.08 103.89-4.79 104.68-5.49 104.99-7.26 105.31-9.03 105.31-12.18L105.31-12.18 105.31-13.67Q105.31-17.65 104.68-19.4 104.04-21.14 101.94-21.14L101.94-21.14 98.57-21.14ZM98.57-38.84L98.57-25.02 101.43-25.02Q102.45-25.02 103.09-25.26 103.72-25.49 104.08-26.2 104.43-26.9 104.55-28.3 104.68-29.69 104.68-32.03L104.68-32.03 104.68-33.23Q104.68-35.67 104.31-36.87 103.94-38.06 103.15-38.45 102.36-38.84 101.06-38.84L101.06-38.84 98.57-38.84ZM121.05 0L116.03 0 116.03-36.62 121.05-36.62 121.05 0ZM121.05-39.99L116.03-39.99 116.03-44.58 121.05-44.58 121.05-39.99ZM138.09 0.22L134.65 0.22Q132.31 0.22 131.11-0.34 129.91-0.9 129.5-2.15 129.08-3.39 129.08-5.44L129.08-5.44 129.08-32.62 125.74-32.62 125.74-36.33 129.08-36.33 129.08-42.97 134.09-42.97 134.09-36.33 138.04-36.33 138.04-32.62 134.09-32.62 134.09-5.88Q134.09-4.96 134.33-4.5 134.58-4.05 135.43-3.91 136.29-3.76 138.09-3.76L138.09-3.76 138.09 0.22ZM150.32 0.44L150.32 0.44Q147.69 0.44 146.09-0.48 144.49-1.39 143.66-3.08 142.83-4.76 142.55-7.12 142.27-9.47 142.27-12.33L142.27-12.33 142.27-25.27Q142.27-27.86 142.63-30.02 143-32.18 143.9-33.75 144.8-35.33 146.42-36.19 148.03-37.06 150.52-37.06L150.52-37.06Q153.03-37.06 154.57-36.18 156.11-35.3 156.9-33.7 157.69-32.1 157.96-29.9 158.23-27.69 158.23-25.05L158.23-25.05 158.23-18.14 147.29-18.14 147.29-10.84Q147.29-7.37 147.77-5.55 148.25-3.74 150.37-3.74L150.37-3.74Q151.76-3.74 152.36-4.6 152.96-5.47 153.09-7.04 153.23-8.62 153.23-10.77L153.23-10.77 153.23-13.72 158.13-13.72 158.13-12.16Q158.13-9.3 157.9-6.98 157.67-4.66 156.91-3 156.16-1.34 154.58-0.45 153.01 0.44 150.32 0.44ZM147.27-26.03L147.27-21.53 153.23-21.53 153.23-26.2Q153.23-28.39 153.08-29.9 152.93-31.4 152.37-32.17 151.81-32.93 150.52-32.93L150.52-32.93Q149.08-32.93 148.38-32.06 147.69-31.18 147.48-29.63 147.27-28.08 147.27-26.03L147.27-26.03Z" opacity="1" transform="matrix(1,0,0,1,0,0)" fill="#b81d33" class="wordmark-text-0" data-fill-palette-color="primary" id="text-0"></path></svg></g></svg></g><g transform="matrix(1,0,0,1,3.5,133.89244297323418)"><svg viewBox="0 0 309.416 50.0781718875502" height="50.0781718875502" width="309.416"><g transform="matrix(1,0,0,1,0,0)"><svg width="309.416" viewBox="-3.75 -36.7 250 41.300000000000004" height="50.0781718875502" data-palette-color="#b81d33"><path d="M21-30.1L14.55-30.1 14.55-1.5Q14.55-0.9 15.25-0.9L15.25-0.9 19.6-0.9 19.6 0 5.4 0 5.4-0.9 9.75-0.9Q10.45-0.9 10.45-1.5L10.45-1.5 10.45-30.1 4-30.1Q2.7-30.1 2.6-29L2.6-29 1.85-23.15 0.7-23.15 0.7-25.5Q0.7-29.9 0.25-31.95L0.25-31.95Q1.85-31.5 5.8-31.5L5.8-31.5 19.2-31.5Q23.15-31.5 24.75-31.95L24.75-31.95Q24.3-29.9 24.3-25.5L24.3-25.5 24.3-23.15 23.15-23.15 22.4-29Q22.3-30.1 21-30.1L21-30.1ZM32.6-22.2L32.6-22.2Q36.05-22.2 38.05-19.9 40.05-17.6 40.05-13.15L40.05-13.15Q40.05-12.25 39.95-11.15L39.95-11.15 26.3-11.15 26.3-10.8Q26.3-6.05 28.03-3.33 29.75-0.6 32.48-0.6 35.2-0.6 36.95-2 38.7-3.4 39.35-6L39.35-6 40.3-5.8Q39.7-2.75 37.55-1.07 35.4 0.6 32.6 0.6L32.6 0.6Q28.25 0.6 25.38-2.45 22.5-5.5 22.5-10.78 22.5-16.05 25.4-19.13 28.3-22.2 32.6-22.2ZM36.6-14.85L36.6-14.85Q36.6-21 32-21L32-21Q29.7-21 28.08-18.5 26.45-16 26.35-12.15L26.35-12.15 36.4-12.15Q36.6-13.85 36.6-14.85ZM51.05-13.55L51.05-13.55 56.25-11.6Q58.1-10.9 59.08-9.47 60.05-8.05 60.05-6.3L60.05-6.3Q60.05-3.6 57.9-1.5 55.75 0.6 52.13 0.6 48.5 0.6 45.3-0.75L45.3-0.75Q45.6-1.95 45.6-4.95L45.6-4.95 45.6-6.95 46.5-6.95 46.85-4.35Q47.3-0.6 52.1-0.6L52.1-0.6Q54.25-0.6 55.68-1.93 57.1-3.25 57.1-4.95L57.1-4.95Q57.1-7.3 54.25-8.35L54.25-8.35 49.05-10.3Q47.3-10.95 46.4-12.35 45.5-13.75 45.5-15.5L45.5-15.5Q45.5-18.15 47.4-20.18 49.3-22.2 52.18-22.2 55.05-22.2 58.65-20.85L58.65-20.85Q58.35-19.65 58.35-16.65L58.35-16.65 58.35-14.65 57.45-14.65 57.1-17.25Q56.7-20.85 52.55-20.85L52.55-20.85Q50.7-20.85 49.5-19.7 48.3-18.55 48.3-17L48.3-17Q48.3-14.6 51.05-13.55ZM69.2-26.9L69.2-26.9 69.95-26.9 69.95-21.6 74.95-21.6 74.95-20.7 69.95-20.7 69.95-3.75Q69.95-1.05 71.45-1.05L71.45-1.05Q72.15-1.05 72.68-1.7 73.2-2.35 73.2-3.2 73.2-4.05 73.05-4.8L73.05-4.8 74-4.95Q74.2-4.2 74.2-3.3L74.2-3.3Q74.2-1.5 73.13-0.45 72.05 0.6 70.3 0.6 68.55 0.6 67.45-0.83 66.35-2.25 66.35-5.1L66.35-5.1 66.35-20Q66.35-20.7 65.65-20.7L65.65-20.7 63.3-20.7 63.3-21.6 65.75-21.6Q67.35-21.6 69.2-26.9ZM95.35-26.9L95.35-26.9 96.1-26.9 96.1-21.6 101.1-21.6 101.1-20.7 96.1-20.7 96.1-3.75Q96.1-1.05 97.6-1.05L97.6-1.05Q98.3-1.05 98.83-1.7 99.35-2.35 99.35-3.2 99.35-4.05 99.2-4.8L99.2-4.8 100.15-4.95Q100.35-4.2 100.35-3.3L100.35-3.3Q100.35-1.5 99.28-0.45 98.2 0.6 96.45 0.6 94.7 0.6 93.6-0.83 92.5-2.25 92.5-5.1L92.5-5.1 92.5-20Q92.5-20.7 91.8-20.7L91.8-20.7 89.45-20.7 89.45-21.6 91.9-21.6Q93.5-21.6 95.35-26.9ZM123.95-14.6L123.95-14.6 123.95-1.5Q123.95-0.9 124.65-0.9L124.65-0.9 127-0.9 127 0 118 0 118-0.9 119.65-0.9Q120.35-0.9 120.35-1.5L120.35-1.5 120.35-15.25Q120.35-17.8 119.23-19.03 118.1-20.25 116.25-20.25L116.25-20.25Q113.65-20.25 111.95-17.18 110.25-14.1 110.25-8.35L110.25-8.35 110.25-1.6Q110.25-0.9 110.95-0.9L110.95-0.9 112.6-0.9 112.6 0 103.6 0 103.6-0.9 105.95-0.9Q106.65-0.9 106.65-1.5L106.65-1.5 106.65-30.8Q106.65-31.5 105.95-31.5L105.95-31.5 103.6-31.5 103.6-32.4 106.05-32.4Q109.05-32.4 110.25-32.7L110.25-32.7 110.25-15.1Q111.95-22.2 117.75-22.2L117.75-22.2Q120.35-22.2 122.15-20.33 123.95-18.45 123.95-14.6ZM140.6-22.2L140.6-22.2Q144.05-22.2 146.05-19.9 148.05-17.6 148.05-13.15L148.05-13.15Q148.05-12.25 147.95-11.15L147.95-11.15 134.3-11.15 134.3-10.8Q134.3-6.05 136.03-3.33 137.75-0.6 140.47-0.6 143.2-0.6 144.95-2 146.7-3.4 147.35-6L147.35-6 148.3-5.8Q147.7-2.75 145.55-1.07 143.4 0.6 140.6 0.6L140.6 0.6Q136.25 0.6 133.38-2.45 130.5-5.5 130.5-10.78 130.5-16.05 133.4-19.13 136.3-22.2 140.6-22.2ZM144.6-14.85L144.6-14.85Q144.6-21 140-21L140-21Q137.7-21 136.07-18.5 134.45-16 134.35-12.15L134.35-12.15 144.4-12.15Q144.6-13.85 144.6-14.85ZM183.08-2.45Q180.35 0.6 175.95 0.6 171.55 0.6 168.6-2.7L168.6-2.7 168.2 0.4 167.35 0.4 167.35-30.8Q167.35-31.5 166.65-31.5L166.65-31.5 164.3-31.5 164.3-32.4 166.75-32.4Q169.75-32.4 170.95-32.7L170.95-32.7 170.95-14.9Q171.8-18.5 173.68-20.35 175.55-22.2 177.85-22.2L177.85-22.2Q181-22.2 183.4-19.05 185.8-15.9 185.8-10.7 185.8-5.5 183.08-2.45ZM177.1-20.3L177.1-20.3Q174.6-20.3 172.78-17.2 170.95-14.1 170.95-8.25L170.95-8.25 170.95-2.05Q173.05-0.65 175.73-0.65 178.4-0.65 180.2-3.3 182-5.95 182-10.6 182-15.25 180.55-17.78 179.1-20.3 177.1-20.3ZM199.9-22.2L199.9-22.2Q203.35-22.2 205.35-19.9 207.35-17.6 207.35-13.15L207.35-13.15Q207.35-12.25 207.25-11.15L207.25-11.15 193.6-11.15 193.6-10.8Q193.6-6.05 195.33-3.33 197.05-0.6 199.78-0.6 202.5-0.6 204.25-2 206-3.4 206.65-6L206.65-6 207.6-5.8Q207-2.75 204.85-1.07 202.7 0.6 199.9 0.6L199.9 0.6Q195.55 0.6 192.68-2.45 189.8-5.5 189.8-10.78 189.8-16.05 192.7-19.13 195.6-22.2 199.9-22.2ZM203.9-14.85L203.9-14.85Q203.9-21 199.3-21L199.3-21Q197-21 195.38-18.5 193.75-16 193.65-12.15L193.65-12.15 203.7-12.15Q203.9-13.85 203.9-14.85ZM218.35-13.55L218.35-13.55 223.55-11.6Q225.4-10.9 226.38-9.47 227.35-8.05 227.35-6.3L227.35-6.3Q227.35-3.6 225.2-1.5 223.05 0.6 219.43 0.6 215.8 0.6 212.6-0.75L212.6-0.75Q212.9-1.95 212.9-4.95L212.9-4.95 212.9-6.95 213.8-6.95 214.15-4.35Q214.6-0.6 219.4-0.6L219.4-0.6Q221.55-0.6 222.98-1.93 224.4-3.25 224.4-4.95L224.4-4.95Q224.4-7.3 221.55-8.35L221.55-8.35 216.35-10.3Q214.6-10.95 213.7-12.35 212.8-13.75 212.8-15.5L212.8-15.5Q212.8-18.15 214.7-20.18 216.6-22.2 219.48-22.2 222.35-22.2 225.95-20.85L225.95-20.85Q225.65-19.65 225.65-16.65L225.65-16.65 225.65-14.65 224.75-14.65 224.4-17.25Q224-20.85 219.85-20.85L219.85-20.85Q218-20.85 216.8-19.7 215.6-18.55 215.6-17L215.6-17Q215.6-14.6 218.35-13.55ZM236.5-26.9L236.5-26.9 237.25-26.9 237.25-21.6 242.25-21.6 242.25-20.7 237.25-20.7 237.25-3.75Q237.25-1.05 238.75-1.05L238.75-1.05Q239.45-1.05 239.98-1.7 240.5-2.35 240.5-3.2 240.5-4.05 240.35-4.8L240.35-4.8 241.3-4.95Q241.5-4.2 241.5-3.3L241.5-3.3Q241.5-1.5 240.43-0.45 239.35 0.6 237.6 0.6 235.85 0.6 234.75-0.83 233.65-2.25 233.65-5.1L233.65-5.1 233.65-20Q233.65-20.7 232.95-20.7L232.95-20.7 230.6-20.7 230.6-21.6 233.05-21.6Q234.65-21.6 236.5-26.9Z" opacity="1" transform="matrix(1,0,0,1,0,0)" fill="#b81d33" class="slogan-text-1" data-fill-palette-color="secondary" id="text-1"></path></svg></g></svg></g></svg></g></svg></g></svg></g></svg></g></svg></g><g mask="url(#9b841dfd-0d57-419e-bdc5-bf47dc9c70b5)"><g transform="matrix(2.871429742484747, 0, 0, 2.871429742484747, 33.03756133283133, 0.9999999999999858)"><svg xmlns="http://www.w3.org/2000/svg" xmlns:xlink="http://www.w3.org/1999/xlink" version="1.1" x="0" y="0" viewBox="-23.945 43.691 114.73200004164383 85.393" enable-background="new -28.167 35 125.667 101" xml:space="preserve" height="85.393" width="114.73200004164383" class="icon-none" data-fill-palette-color="accent" id="none"><path d="M50.643 46.25C39.958 46.25 30.243 50.455 23.042 57.286L2.775 51.711-0.916 45.218-6.468 43.691-2.775 50.184-9.593 48.309-10.389 51.202-3.57 53.077-10.066 56.767-4.513 58.294 1.979 54.604 20.657 59.742C14.634 66.511 10.867 75.322 10.533 84.994H-11.118L-16.399 79.713H-22.157L-16.873 84.994H-23.945V87.994H-16.873L-22.157 93.275H-16.399L-11.118 87.994H10.538C10.996 99.633 16.43 110.01 24.77 117.056L17.216 118.674 10.945 114.614 5.314 115.82 11.587 119.879 4.672 121.359 5.3 124.292 12.215 122.813 8.154 129.084 13.785 127.878 17.843 121.607 27.9 119.454A39.9 39.9 0 0 0 50.641 126.54C72.777 126.54 90.787 108.532 90.787 86.397 90.788 64.26 72.779 46.25 50.643 46.25M29.534 62.184L39.91 65.038C32.575 68.813 27.447 76.293 27.029 84.995H18.533C18.926 75.908 23.108 67.793 29.534 62.184M43.33 87.994C44.085 91.287 47.028 93.745 50.549 93.745A7.413 7.413 0 0 0 50.549 78.919C46.913 78.919 43.894 81.54 43.263 84.994H35.059C35.653 76.859 42.445 70.417 50.729 70.417 59.402 70.417 66.458 77.474 66.458 86.146S59.402 101.875 50.729 101.875C42.682 101.875 36.038 95.798 35.119 87.994zM50.643 118.539C47.008 118.539 43.517 117.924 40.256 116.807L70.069 110.423C69.894 109.439 69.725 108.452 69.555 107.467L35.528 114.754C25.846 109.572 19.11 99.582 18.539 87.994H27.08C28.026 100.217 38.268 109.875 50.729 109.875 63.813 109.875 74.458 99.23 74.458 86.146 74.458 73.061 63.813 62.417 50.729 62.417A23.7 23.7 0 0 0 44.614 63.22L32.49 59.885A31.95 31.95 0 0 1 50.642 54.251C68.367 54.251 82.788 68.671 82.788 86.397 82.788 104.12 68.368 118.539 50.643 118.539" fill="#fe6e63" data-fill-palette-color="accent"></path></svg></g></g></svg></g><defs></defs></svg><rect width="395.52" height="247.2" fill="none" stroke="none" visibility="hidden"></rect></g></svg></g></svg>